<svg width="178" height="49" viewBox="0 0 178 49" fill="none" xmlns="http://www.w3.org/2000/svg">
<path fill-rule="evenodd" clip-rule="evenodd" d="M20.4129 49H41.0643C39.1268 48.5141 37.2886 47.8056 35.5497 46.8746C31.9283 44.911 29.0473 42.0461 26.9067 38.2799C24.7821 34.4975 23.7199 29.8702 23.7199 24.3979C23.7199 18.8934 24.7821 14.2581 26.9067 10.4918C29.0473 6.70951 31.9283 3.85264 35.5497 1.92124C37.059 1.11319 38.643 0.472776 40.3019 0H0.422852V38.303H20.4129V49ZM71.8118 24.3979C71.8118 29.9024 70.7414 34.5458 68.6008 38.3281C66.4602 42.0944 63.5711 44.9512 59.9336 46.8987C58.2026 47.8179 56.3769 48.5183 54.4563 49H95.1705C93.1035 48.4892 91.1778 47.7324 89.3935 46.7297C85.7561 44.6857 82.9153 41.7725 80.8712 37.9902C78.8432 34.2078 77.8293 29.7093 77.8293 24.4945C77.8293 20.4064 78.4489 16.785 79.6882 13.6304C80.9436 10.4757 82.6819 7.81202 84.903 5.63919C87.1241 3.45027 89.6913 1.80053 92.6045 0.689974C93.2767 0.429985 93.9601 0.199993 94.6547 0H55.1897C56.8431 0.472776 58.4244 1.11319 59.9336 1.92124C63.5711 3.85264 66.4602 6.70951 68.6008 10.4918C70.7414 14.2581 71.8118 18.8934 71.8118 24.3979ZM58.0022 24.3979C58.0022 21.4364 57.6079 18.9417 56.8193 16.9137C56.0467 14.8697 54.8959 13.3246 53.3669 12.2784C51.8539 11.2161 49.9869 10.685 47.7658 10.685C45.5447 10.685 43.6696 11.2161 42.1406 12.2784C40.6277 13.3246 39.4769 14.8697 38.6882 16.9137C37.9157 18.9417 37.5294 21.4364 37.5294 24.3979C37.5294 27.3594 37.9157 29.8622 38.6882 31.9062C39.4769 33.9342 40.6277 35.4793 42.1406 36.5416C43.6696 37.5878 45.5447 38.1109 47.7658 38.1109C49.9869 38.1109 51.8539 37.5878 53.3669 36.5416C54.8959 35.4793 56.0467 33.9342 56.8193 31.9062C57.6079 29.8622 58.0022 27.3594 58.0022 24.3979ZM109.142 13.7511C109.593 14.3949 109.923 15.1433 110.132 15.9963H123.7C123.443 13.5177 122.718 11.2403 121.527 9.164C120.336 7.08774 118.767 5.29315 116.819 3.78022C114.888 2.25119 112.659 1.07626 110.132 0.255412C109.862 0.165439 109.59 0.0803012 109.315 0H146.927C145.268 0.472776 143.684 1.11319 142.175 1.92124C138.554 3.85264 135.673 6.70951 133.532 10.4918C131.408 14.2581 130.345 18.8934 130.345 24.3979C130.345 29.8702 131.408 34.4975 133.532 38.2799C135.673 42.0461 138.554 44.911 142.175 46.8746C143.914 47.8056 145.752 48.5141 147.69 49H108.857C110.511 48.5837 112.071 48.0039 113.536 47.2609C116.884 45.5548 119.507 43.1084 121.406 39.9216C123.322 36.7186 124.279 32.8639 124.279 28.3573V21.5008H102.358V31.0613H111.336C111.301 32.441 110.964 33.6481 110.325 34.6826C109.649 35.7771 108.627 36.6221 107.259 37.2176C105.907 37.8131 104.209 38.1109 102.165 38.1109C99.8472 38.1109 97.9078 37.5636 96.3466 36.4692C94.7854 35.3747 93.6104 33.7974 92.8218 31.7372C92.0331 29.6771 91.6388 27.1985 91.6388 24.3013C91.6388 21.4364 92.0492 18.99 92.87 16.962C93.707 14.9341 94.9141 13.3809 96.4914 12.3025C98.0848 11.2242 100.008 10.685 102.261 10.685C103.308 10.685 104.265 10.8057 105.134 11.0471C106.02 11.2724 106.792 11.6185 107.452 12.0852C108.128 12.5359 108.691 13.0912 109.142 13.7511ZM175.226 38.3281C176.577 35.9414 177.502 33.2117 178 30.1391V49H161.082C163.002 48.5183 164.828 47.8179 166.559 46.8987C170.196 44.9512 173.086 42.0944 175.226 38.3281ZM166.559 1.92124C165.05 1.11319 163.468 0.472776 161.815 0H178V18.66C177.502 15.5912 176.577 12.8685 175.226 10.4918C173.086 6.70951 170.196 3.85264 166.559 1.92124ZM164.628 24.3979C164.628 21.4364 164.233 18.9417 163.445 16.9137C162.672 14.8697 161.521 13.3246 159.992 12.2784C158.479 11.2161 156.612 10.685 154.391 10.685C152.17 10.685 150.295 11.2161 148.766 12.2784C147.253 13.3246 146.102 14.8697 145.314 16.9137C144.541 18.9417 144.155 21.4364 144.155 24.3979C144.155 27.3594 144.541 29.8622 145.314 31.9062C146.102 33.9342 147.253 35.4793 148.766 36.5416C150.295 37.5878 152.17 38.1109 154.391 38.1109C156.612 38.1109 158.479 37.5878 159.992 36.5416C161.521 35.4793 162.672 33.9342 163.445 31.9062C164.233 29.8622 164.628 27.3594 164.628 24.3979Z" fill="black"/>
</svg>
