<svg width="150" height="47" viewBox="0 0 150 47" fill="none" xmlns="http://www.w3.org/2000/svg">
<path fill-rule="evenodd" clip-rule="evenodd" d="M0 23.5C0 10.5215 10.5214 0 23.5 0H126.5C139.479 0 150 10.5215 150 23.5C150 36.4785 139.479 47 126.5 47H23.5C10.5214 47 0 36.4785 0 23.5ZM116.679 37.9609C114.919 37.9609 113.252 37.6934 111.679 37.1602C110.105 36.627 108.692 35.8008 107.439 34.6797C106.212 33.5332 105.239 32.0527 104.519 30.2402C103.825 28.4258 103.479 26.2402 103.479 23.6797V22.8809C103.479 20.4258 103.825 18.334 104.519 16.5996C105.239 14.8398 106.212 13.4004 107.439 12.2793C108.692 11.1602 110.105 10.334 111.679 9.80078C113.252 9.26758 114.919 9 116.679 9C118.439 9 120.105 9.26758 121.679 9.80078C123.252 10.334 124.652 11.1602 125.879 12.2793C127.132 13.4004 128.105 14.8398 128.799 16.5996C129.519 18.334 129.879 20.4258 129.879 22.8809V23.6797C129.879 26.2402 129.519 28.4258 128.799 30.2402C128.105 32.0527 127.132 33.5332 125.879 34.6797C124.652 35.8008 123.252 36.627 121.679 37.1602C120.105 37.6934 118.439 37.9609 116.679 37.9609ZM116.679 32.9199C117.905 32.9199 119.039 32.6406 120.079 32.0801C121.145 31.4941 121.999 30.5332 122.639 29.1992C123.305 27.8398 123.639 26 123.639 23.6797V22.8809C123.639 20.6934 123.305 18.9609 122.639 17.6797C121.999 16.373 121.145 15.4395 120.079 14.8809C119.039 14.3203 117.905 14.0391 116.679 14.0391C115.479 14.0391 114.345 14.3203 113.279 14.8809C112.212 15.4395 111.345 16.373 110.679 17.6797C110.039 18.9609 109.719 20.6934 109.719 22.8809V23.6797C109.719 26 110.039 27.8398 110.679 29.1992C111.345 30.5332 112.212 31.4941 113.279 32.0801C114.345 32.6406 115.479 32.9199 116.679 32.9199ZM80.8534 36.5195C82.8268 37.4805 85.0535 37.9609 87.5334 37.9609C89.3734 37.9609 91.0402 37.6934 92.5334 37.1602C94.0267 36.627 95.3068 35.8125 96.3734 34.7207C97.4668 33.5996 98.2935 32.1992 98.8534 30.5195C99.4401 28.8125 99.7334 26.8008 99.7334 24.4805V22.8809H88.3335V27.0391H94.0134C93.9067 28.4004 93.5468 29.5195 92.9335 30.4004C92.3468 31.2539 91.5868 31.8809 90.6534 32.2793C89.7201 32.6797 88.6801 32.8809 87.5334 32.8809C86.6801 32.8809 85.8534 32.7207 85.0535 32.4004C84.2534 32.0801 83.5201 31.5742 82.8534 30.8809C82.2135 30.1602 81.7068 29.2129 81.3335 28.0391C80.9601 26.8672 80.7734 25.4141 80.7734 23.6797V22.8809C80.7734 20.6934 81.0668 18.9609 81.6534 17.6797C82.2667 16.4004 83.0668 15.4805 84.0535 14.9199C84.4493 14.7012 84.8574 14.5254 85.2777 14.3926C85.4624 14.334 85.6494 14.2832 85.8389 14.2422C86.072 14.1895 86.3087 14.1504 86.549 14.123C86.8063 14.0938 87.0679 14.0801 87.3335 14.0801C88.0801 14.0801 88.8002 14.1992 89.4934 14.4395C90.2135 14.6543 90.8668 15.0664 91.4535 15.6797C92.0402 16.2676 92.5201 17.1191 92.8934 18.2402H99.1334C98.8668 16.6934 98.4001 15.3457 97.7334 14.1992C97.0668 13.0273 96.2268 12.0664 95.2135 11.3203C94.2001 10.5469 93.0267 9.97266 91.6935 9.59961C90.3868 9.19922 88.9335 9 87.3335 9C85.6268 9 84.0001 9.26758 82.4535 9.80078C80.9335 10.334 79.5735 11.1602 78.3734 12.2793C77.1735 13.4004 76.2268 14.8398 75.5334 16.5996C74.8668 18.3594 74.5334 20.4531 74.5334 22.8809V23.6797C74.5334 27.0664 75.0935 29.8125 76.2135 31.9199C77.3601 34 78.9067 35.5332 80.8534 36.5195ZM57.3818 37.9609C55.6218 37.9609 53.9552 37.6934 52.3818 37.1602C50.8086 36.627 49.3953 35.8008 48.1418 34.6797C46.9152 33.5332 45.9419 32.0527 45.2219 30.2402C44.5286 28.4258 44.1819 26.2402 44.1819 23.6797V22.8809C44.1819 20.4258 44.5286 18.334 45.2219 16.5996C45.9419 14.8398 46.9152 13.4004 48.1418 12.2793C49.3953 11.1602 50.8086 10.334 52.3818 9.80078C53.9552 9.26758 55.6218 9 57.3818 9C59.1418 9 60.8086 9.26758 62.3818 9.80078C63.9552 10.334 65.3552 11.1602 66.5819 12.2793C67.8352 13.4004 68.8086 14.8398 69.5018 16.5996C70.2219 18.334 70.5819 20.4258 70.5819 22.8809V23.6797C70.5819 26.2402 70.2219 28.4258 69.5018 30.2402C68.8086 32.0527 67.8352 33.5332 66.5819 34.6797C65.3552 35.8008 63.9552 36.627 62.3818 37.1602C60.8086 37.6934 59.1418 37.9609 57.3818 37.9609ZM57.3818 32.9199C58.6085 32.9199 59.7419 32.6406 60.7819 32.0801C61.8485 31.4941 62.7019 30.5332 63.3419 29.1992C64.0085 27.8398 64.3419 26 64.3419 23.6797V22.8809C64.3419 20.6934 64.0085 18.9609 63.3419 17.6797C62.7019 16.373 61.8485 15.4395 60.7819 14.8809C59.7419 14.3203 58.6085 14.0391 57.3818 14.0391C56.1819 14.0391 55.0486 14.3203 53.9819 14.8809C52.9152 15.4395 52.0486 16.373 51.3818 17.6797C50.7419 18.9609 50.4219 20.6934 50.4219 22.8809V23.6797C50.4219 26 50.7419 27.8398 51.3818 29.1992C52.0486 30.5332 52.9152 31.4941 53.9819 32.0801C55.0486 32.6406 56.1819 32.9199 57.3818 32.9199ZM23 9.48047V37.4805H41.76V32.5195H28.96V9.48047H23Z" fill="black"/>
</svg>
